<svg width="639" height="814" viewBox="0 0 639 814" fill="none" xmlns="http://www.w3.org/2000/svg">
<path d="M276.835 636.156C276.835 636.156 279.319 666.414 265.803 686.357C252.286 706.3 239.13 719.017 246.956 742.43L348.676 692.578L336.232 624.497L276.835 636.156Z" fill="#FF2633"/>
<path d="M275.393 674.984L298.661 670.498" stroke="white" stroke-width="1.42936" stroke-miterlimit="10" stroke-linecap="round"/>
<path d="M384.086 699.375C384.086 699.375 391.845 730.117 381.348 752.806C370.85 775.495 359.485 790.694 371.546 813.471L467.703 745.868L443.227 677.79L384.086 699.375Z" fill="#FF2633"/>
<path d="M389.074 743.904L413.276 738.951" stroke="white" stroke-width="1.49021" stroke-miterlimit="10" stroke-linecap="round"/>
<path d="M309.851 222.857C309.851 222.857 303.63 192.556 314.577 181.9C325.524 171.243 343.342 166.571 352.561 168.325C358.83 169.535 366.973 172.303 368.089 188.175C369.205 204.048 366.74 209.349 366.74 209.349C366.74 209.349 360.577 230.296 348.757 232.304C336.937 234.311 313.927 234.255 309.851 222.857Z" fill="#F3ABAA"/>
<path d="M352.35 169.657C352.35 169.657 353.048 177.293 353.893 189.254" stroke="#FF2633" stroke-width="0.844939" stroke-miterlimit="10" stroke-linecap="round"/>
<path d="M337.259 172.453C337.259 172.453 338.608 183.326 340.762 195.352C342.295 203.851 351.136 206.459 354.776 199.283" stroke="#FF2633" stroke-width="0.844939" stroke-miterlimit="10" stroke-linecap="round"/>
<path d="M324.904 178.916C324.904 178.916 326.845 193.616 327.486 197.678C328.126 201.74 330.795 204.63 333.726 204.63C338.287 204.63 340.16 202.622 341.247 199.283" stroke="#FF2633" stroke-width="0.844939" stroke-miterlimit="10" stroke-linecap="round"/>
<path d="M327.505 200.634C327.505 200.634 325.292 204.724 323.079 205.474C320.867 206.225 316.432 206.412 315.121 203.448C314.015 200.943 313.355 197.669 313.578 192.65" stroke="#FF2633" stroke-width="0.844939" stroke-miterlimit="10" stroke-linecap="round"/>
<path d="M347.041 214.414C347.041 214.414 339.811 207.144 343.062 197.247C346.313 187.35 351.01 192.557 351.01 192.557C351.01 192.557 361.19 201.694 363.849 205.137C365.946 207.857 369.265 215.456 366.013 219.809C363.35 223.295 359.966 226.208 356.076 228.364C354.775 229.011 351.156 231.657 345.401 229.068C344.916 228.842 337.462 223.645 347.041 214.414Z" fill="#F3ABAA"/>
<path d="M491.339 480.292C491.339 480.292 511.292 456.38 515.717 431.511L363.432 404.193L281.039 450.526C259.99 460.892 235.942 491.427 247.141 541.278C257.127 585.744 268.006 646.824 268.113 647.481C281.487 654.441 296.924 656.758 311.852 654.048C324.059 651.668 335.535 646.603 345.391 639.245C345.042 637.171 328.466 570.266 321.828 534.768C319.606 522.882 319.79 512.797 330.805 507.084C330.805 507.084 355.552 496.08 363.432 492.159C367.188 490.283 373.632 486.53 380.095 482.665C362.627 503.848 357.862 511.446 354.863 516.306C345.042 532.254 332.367 544.552 340.403 597.602C344.12 622.143 353.426 645.717 366.605 683.748C369.575 692.304 372.729 701.572 376.067 711.788C376.067 711.788 398.514 715.184 420.622 708.036C444.214 700.437 453.753 682.172 453.753 682.172C412.994 591.26 413.13 577.039 424.135 552.188C428.676 541.888 465.273 508.67 491.339 480.292Z" fill="#0D0F44"/>
<path d="M381.251 478.566L377.282 465.02" stroke="white" stroke-width="0.844939" stroke-miterlimit="10" stroke-linecap="round"/>
<path d="M372.062 699.678C372.062 699.678 409.677 708.12 439.218 681.9" stroke="white" stroke-width="0.844939" stroke-miterlimit="10" stroke-linecap="round"/>
<path d="M265.99 635.746C265.99 635.746 287.855 647.538 312.98 639.573" stroke="white" stroke-width="0.844939" stroke-miterlimit="10" stroke-linecap="round"/>
<path d="M559.009 308.225C542.851 267.229 500.723 240.212 472.735 232.679C458.881 227.616 443.785 226.637 429.355 229.865V229.865C390.536 232.942 355.046 271.798 355.046 271.798C354.571 258.036 354.27 237.088 354.183 230.465C354.169 229.069 353.611 227.729 352.62 226.713C349.117 223.157 340.101 215.23 330.115 216.394C323.452 217.227 317.145 219.784 311.861 223.795C310.258 225.011 309.077 226.67 308.474 228.551C273.469 338.732 283.63 364.079 300.021 374.267C315.5 383.892 327.825 374.155 342.052 365.824C340.926 374.474 340.004 383.648 339.364 393.452C339.364 393.452 337.161 412.533 354.008 420.891C389.653 438.556 421.203 455.432 513.358 437.102C513.358 437.102 516.474 430.385 520.258 419.062C526.12 420.247 532.184 420.138 537.996 418.743C543.808 417.348 549.22 414.702 553.827 411.003C572.275 399.53 577.273 354.558 559.009 308.225Z" fill="#22319E"/>
<path d="M512.057 294.35C512.057 294.35 518.171 329.576 515.715 340.261" stroke="white" stroke-width="0.844939" stroke-miterlimit="10" stroke-linecap="round"/>
<path d="M389.295 258.186C389.295 258.186 362.597 276.414 344.032 357.006" stroke="white" stroke-width="0.844939" stroke-miterlimit="10" stroke-linecap="round"/>
<path d="M526.342 365.519C530.794 363.364 531.129 355.296 527.09 347.499C523.051 339.703 516.168 335.129 511.716 337.284C507.263 339.439 506.929 347.507 510.968 355.304C515.006 363.1 521.89 367.674 526.342 365.519Z" fill="#F3ABAA"/>
<path d="M603.016 106.598C603.016 106.598 612.158 139.647 601.027 155.379C592.157 167.903 606.025 166.177 606.025 166.177C606.025 166.177 620.33 166.299 618.272 136.936C616.419 110.407 603.016 106.598 603.016 106.598Z" fill="#FFD550"/>
<path d="M528.105 2.76839C533.084 -0.317978 539.217 0.0197397 544.603 2.35562C554.987 6.85853 576.93 18.9882 587.042 26.0053C600.57 35.3863 611.41 43.1726 621.202 51.8876C627.209 57.2442 633.275 69.205 628.568 80.7437C622.182 96.4101 610.624 119.281 583.218 129.685C575.513 132.602 564.168 130.698 557.986 125.369C539.431 109.422 505.067 76.7849 499.457 54.6268C498.905 52.4057 499.04 50.0764 499.846 47.9288C502.902 39.711 511.627 12.9656 528.105 2.76839Z" fill="#FF2633"/>
<path d="M504.34 76.6817C504.34 76.6817 507.154 65.3588 526.981 49.608C530.62 46.7186 535.618 44.9175 540.024 46.4935C549.729 50.0583 566.43 59.1579 581.201 87.1791C582.282 89.3355 582.733 91.7367 582.503 94.1229C582.274 96.509 581.374 98.789 579.9 100.716C574.815 107.508 566.915 115.219 540.034 123.7L504.34 76.6817Z" fill="#FF2633"/>
<path d="M541.297 123.053C546.016 119.4 541.484 106.351 531.175 93.9076C520.866 81.4642 508.683 74.3384 503.964 77.9917C499.245 81.6449 503.777 94.6938 514.086 107.137C524.396 119.58 536.578 126.706 541.297 123.053Z" fill="#0D0F44"/>
<path d="M486.971 118.287C486.971 118.287 499.587 125.857 499.072 144.676C499.072 144.676 505.138 142.433 509.417 144.863C516.123 148.616 519.539 164.085 510.184 180.915C510.184 180.915 500.557 208.795 487.989 201.112L450.724 159.066L486.971 118.287Z" fill="#0D0F44"/>
<path d="M449.645 189.301C448.287 207.519 435.176 234.527 435.176 234.527C435.176 234.527 448.762 249.209 484.427 240.878C484.427 240.878 485.834 223.158 486.028 217.773C486.892 194.527 483.049 186.168 482.767 190.239L449.645 189.301Z" fill="#F3ABAA"/>
<path d="M442.805 216.347C442.805 216.347 468.037 221.976 485.942 203.354C485.893 202.594 485.845 201.872 485.787 201.178L447.279 202.322C446.027 207.107 444.425 211.928 442.805 216.347Z" fill="#0D0F44"/>
<path d="M462.06 210.681C483.532 210.681 500.937 193.855 500.937 173.1C500.937 152.345 483.532 135.52 462.06 135.52C440.589 135.52 423.184 152.345 423.184 173.1C423.184 193.855 440.589 210.681 462.06 210.681Z" fill="#F3ABAA"/>
<path d="M500.054 181.918C497.667 186.393 495.124 185.952 494.396 184.508C492.397 180.492 494.037 177.003 491.912 163.869C491.145 159.555 488.787 155.655 485.274 152.893C474.861 144.15 458.101 146.28 457.781 146.327C453.676 146.542 449.706 147.893 446.048 148.897C416.672 156.965 415.711 138.869 415.711 131.017C415.711 117.733 426.561 106.954 439.973 106.954C444.197 106.977 448.341 108.072 451.99 110.128C455.64 112.184 458.667 115.13 460.77 118.671C464.664 115.059 469.852 113.043 475.249 113.043C487.021 113.043 496.599 122.518 496.599 134.197C496.609 137.667 495.75 141.089 494.095 144.169C499.394 147.64 501.733 155.52 502.5 158.578C504.12 165.004 502.946 176.487 500.054 181.918Z" fill="#0D0F44"/>
<path d="M468.727 168.492C469.079 165.574 468.164 163.073 466.684 162.907C465.204 162.74 463.719 164.971 463.368 167.889C463.016 170.806 463.931 173.307 465.411 173.473C466.891 173.64 468.376 171.41 468.727 168.492Z" fill="#0D0F44"/>
<path d="M448.554 166.213C448.906 163.295 447.991 160.794 446.511 160.628C445.031 160.461 443.546 162.692 443.195 165.61C442.843 168.528 443.758 171.028 445.238 171.195C446.718 171.361 448.203 169.131 448.554 166.213Z" fill="#0D0F44"/>
<path d="M466.065 191.412C466.065 191.412 473.15 194.123 476.081 185.511" stroke="#0D0F44" stroke-width="0.844939" stroke-miterlimit="10" stroke-linecap="round"/>
<path d="M503.961 189.403C509.663 185.39 512.004 179.108 509.19 175.372C506.375 171.636 499.472 171.861 493.77 175.874C488.068 179.887 485.727 186.169 488.541 189.905C491.355 193.641 498.259 193.417 503.961 189.403Z" fill="#F3ABAA"/>
<path d="M494.395 184.508L505.875 179.761" stroke="#0D0F44" stroke-width="0.844939" stroke-miterlimit="10" stroke-linecap="round"/>
<path d="M455.84 168.297L453.307 178.766C453.233 179.07 453.227 179.386 453.286 179.693C453.346 180 453.471 180.291 453.654 180.549C453.836 180.806 454.072 181.025 454.347 181.189C454.621 181.354 454.928 181.462 455.248 181.506L457.848 181.909" stroke="#0D0F44" stroke-width="0.844939" stroke-miterlimit="10" stroke-linecap="round"/>
<path d="M89.0392 317.911L102.383 328.089C103.091 328.634 103.926 329.004 104.816 329.168C105.705 329.331 106.622 329.283 107.488 329.028L123.724 324.178C124.719 323.878 125.782 323.854 126.791 324.108C127.8 324.363 128.715 324.885 129.432 325.617C130.149 326.348 130.64 327.26 130.849 328.247C131.058 329.235 130.977 330.259 130.614 331.204L124.714 346.608C124.399 347.428 124.295 348.31 124.412 349.178C124.529 350.046 124.862 350.873 125.383 351.589L135.175 365.023C135.776 365.845 136.126 366.814 136.186 367.819C136.247 368.825 136.015 369.826 135.517 370.71C135.019 371.595 134.275 372.327 133.369 372.824C132.463 373.321 131.432 373.562 130.391 373.522L113.408 372.865C112.502 372.829 111.602 373.007 110.783 373.383C109.965 373.759 109.253 374.322 108.711 375.023L98.5207 388.156C97.8948 388.955 97.0513 389.569 96.0848 389.929C95.1182 390.29 94.0668 390.384 93.0483 390.2C92.0298 390.016 91.0844 389.562 90.318 388.887C89.5517 388.213 88.9946 387.346 88.7093 386.383L84.0802 370.529C83.8335 369.688 83.3799 368.916 82.7581 368.281C82.1362 367.645 81.3645 367.165 80.5089 366.88L64.4477 361.617C63.4608 361.294 62.5875 360.709 61.9266 359.93C61.2658 359.151 60.8438 358.209 60.7084 357.21C60.573 356.211 60.7298 355.196 61.1608 354.278C61.5918 353.361 62.28 352.579 63.1472 352.021L77.2869 342.902C78.041 342.418 78.6614 341.764 79.0944 340.995C79.5273 340.227 79.7597 339.368 79.7713 338.493L79.9751 322.067C79.9862 321.056 80.2911 320.068 80.8549 319.217C81.4186 318.365 82.2186 317.684 83.1636 317.251C84.1086 316.817 85.1605 316.65 86.1994 316.766C87.2383 316.883 88.2223 317.28 89.0392 317.911V317.911Z" fill="#FFD550"/>
<path d="M142.694 133.085L28.5329 160.763C27.4837 161.022 26.3911 161.074 25.3208 160.915C24.2504 160.755 23.2244 160.389 22.3043 159.837C21.3843 159.284 20.5891 158.558 19.9667 157.702C19.3443 156.845 18.9074 155.875 18.6822 154.851L0.179362 71.1591C-0.0524485 70.1157 -0.0596392 69.0374 0.158238 67.9913C0.376115 66.9452 0.814396 65.9536 1.44581 65.0782C2.07722 64.2029 2.88824 63.4626 3.82841 62.9033C4.76857 62.344 5.81776 61.9777 6.91067 61.8273L123.633 45.7347C125.654 45.4494 127.712 45.9179 129.389 47.0452C131.066 48.1726 132.236 49.8743 132.663 51.8051L148.58 123.912C149.018 125.88 148.649 127.936 147.552 129.647C146.454 131.357 144.713 132.59 142.694 133.085V133.085Z" fill="#BEDDFA"/>
<path d="M148.66 124.253C148.66 124.142 148.66 124.031 148.602 123.912L148.496 123.595C148.389 123.595 138.226 126.586 122.449 110.629C104.75 92.7427 89.9744 94.2028 79.0811 97.4721C76.0417 98.4544 73.1783 99.8866 70.5931 101.717C67.3137 98.2776 63.0695 95.8347 58.3783 94.6868C50.8014 92.6792 38.7261 95.5756 22.4807 103.304C17.3583 105.733 12.63 108.288 8.8457 110.446L9.00988 111.152C21.6188 104.011 45.4903 91.9889 58.1895 95.3613C62.7233 96.471 66.8285 98.8244 70.0103 102.138C62.6715 107.367 55.8417 115.771 54.1671 124.357C52.788 131.419 55.1275 137.521 60.9394 142.012C62.354 143.199 64.1918 143.805 66.0618 143.702C66.686 143.651 67.2995 143.515 67.8842 143.298C72.8095 141.481 76.3886 134.514 77.3983 128.578C78.2956 122.756 77.8385 116.814 76.0603 111.184C75.0127 107.913 73.3114 104.872 71.0528 102.233C73.5566 100.469 76.325 99.0855 79.2617 98.1307C89.9333 94.917 104.471 93.4966 121.948 111.113C137.676 127.007 147.757 124.515 148.66 124.253ZM75.4118 111.39C77.1648 116.921 77.6164 122.761 76.7334 128.483C75.773 134.037 72.2349 140.941 67.6543 142.655C65.5364 143.449 63.435 143.036 61.4074 141.473C58.7309 139.556 56.6863 136.93 55.5209 133.914C54.3554 130.897 54.119 127.619 54.8402 124.476C56.482 116.025 63.2297 107.756 70.4372 102.63C72.6815 105.201 74.3727 108.18 75.4118 111.39V111.39Z" fill="white"/>
<path d="M485.303 438.049L368.488 419.775C364.073 419.085 360.095 416.799 357.358 413.38C354.621 409.961 353.33 405.664 353.747 401.36L361.365 322.559C362.19 314.116 369.827 308.75 378.61 308.375C396.864 307.606 417.662 306.977 442.496 309.154C466.398 311.255 484.41 313.91 498.268 316.189C514.562 318.863 520.531 327.831 519.337 340.12L511.777 418.246C511.487 421.267 510.556 424.199 509.045 426.858C507.533 429.518 505.472 431.848 502.989 433.705C500.506 435.562 497.655 436.906 494.613 437.653C491.57 438.401 488.402 438.535 485.303 438.049V438.049Z" fill="white"/>
<path d="M414.947 403.912L407.338 394.371L395.751 397.27C399.911 386.417 405.287 376.036 411.783 366.312L428.747 377.213C423.181 385.615 418.555 394.565 414.947 403.912V403.912ZM428.747 377.213L420.265 371.744L428.747 377.204V377.213Z" fill="#FF2633"/>
<path d="M438.974 405.319C435.092 390.394 433.888 373.47 433.84 372.757L454.22 371.463C454.22 371.622 455.336 387.345 458.771 400.497L447.126 396.36L438.974 405.319Z" fill="#FF2633"/>
<path d="M411.79 366.284C411.625 366.51 409.994 368.892 407.704 372.729C411.687 378.338 417.537 382.46 424.28 384.409C426.764 380.112 428.627 377.373 428.744 377.213L420.262 371.754L411.79 366.284Z" fill="#0D0F44"/>
<path d="M454.181 371.463L433.801 372.757C433.801 373.151 434.208 378.527 435.198 385.788C442.41 385.558 449.326 382.965 454.811 378.433C454.375 374.296 454.181 371.528 454.181 371.463Z" fill="#0D0F44"/>
<path d="M464.8 354.666C465.457 339.385 452.202 326.443 435.194 325.76C418.186 325.077 403.866 336.91 403.209 352.192C402.552 367.473 415.807 380.415 432.815 381.098C449.823 381.781 464.143 369.947 464.8 354.666Z" fill="#FF2633"/>
<path d="M437.054 341.059L439.131 346.912C439.244 347.222 439.433 347.502 439.681 347.727C439.93 347.952 440.23 348.117 440.557 348.207L446.729 349.858C447.107 349.961 447.447 350.163 447.712 350.443C447.976 350.723 448.155 351.068 448.228 351.44C448.3 351.813 448.264 352.198 448.123 352.551C447.981 352.905 447.741 353.213 447.428 353.442L442.314 357.194C442.042 357.392 441.823 357.651 441.678 357.948C441.533 358.245 441.464 358.573 441.479 358.901L441.76 365.083C441.777 365.463 441.683 365.838 441.49 366.169C441.298 366.499 441.013 366.771 440.669 366.953C440.325 367.136 439.935 367.222 439.543 367.201C439.151 367.181 438.773 367.055 438.451 366.838L433.211 363.282C432.931 363.094 432.608 362.974 432.27 362.933C431.932 362.892 431.589 362.931 431.27 363.048L425.272 365.205C424.905 365.337 424.507 365.366 424.124 365.291C423.74 365.216 423.386 365.038 423.1 364.779C422.815 364.52 422.61 364.189 422.509 363.824C422.407 363.458 422.413 363.072 422.526 362.71L424.399 356.8C424.503 356.483 424.525 356.146 424.462 355.819C424.399 355.491 424.254 355.184 424.04 354.924L420.012 350.036C419.771 349.739 419.619 349.382 419.576 349.006C419.532 348.631 419.597 348.25 419.765 347.908C419.932 347.567 420.194 347.276 420.523 347.071C420.851 346.865 421.232 346.752 421.623 346.744L428.028 346.631C428.371 346.622 428.706 346.532 429.004 346.368C429.302 346.205 429.553 345.973 429.736 345.693L433.279 340.533C433.496 340.206 433.806 339.947 434.171 339.785C434.537 339.624 434.943 339.568 435.341 339.623C435.739 339.678 436.112 339.843 436.415 340.098C436.719 340.352 436.941 340.686 437.054 341.059Z" fill="#FFD550"/>
<path d="M382.281 314.867C382.281 314.867 369.024 313.516 367.869 324.754L366.666 336.012" stroke="#DADEEB" stroke-width="1.26741" stroke-miterlimit="10" stroke-linecap="round"/>
<path d="M483.228 320.72C483.228 320.72 498.755 321.912 507.644 327.803" stroke="#DADEEB" stroke-width="1.26741" stroke-miterlimit="10" stroke-linecap="round"/>
<path d="M493.766 359.605C493.766 359.605 496.92 345.852 513.253 350.946C529.586 356.04 535.467 366.509 535.409 371.444C535.409 373.733 536.962 416.079 523.89 419.578C518.3 421.079 494.776 419.428 490.079 399.821C485.382 380.215 493.766 359.605 493.766 359.605Z" fill="#F3ABAA"/>
<path d="M496.977 358.019C496.977 358.019 508.845 359.67 514.688 364.37" stroke="#FF2633" stroke-width="0.844939" stroke-miterlimit="10" stroke-linecap="round"/>
<path d="M493.899 369.961C493.899 369.961 505.768 371.612 511.61 376.312" stroke="#FF2633" stroke-width="0.844939" stroke-miterlimit="10" stroke-linecap="round"/>
<path d="M492.521 380.834C492.521 380.834 504.439 382.485 510.262 387.175" stroke="#FF2633" stroke-width="0.844939" stroke-miterlimit="10" stroke-linecap="round"/>
<path d="M492.521 393.977C492.521 393.977 501.984 393.977 507.826 398.667" stroke="#FF2633" stroke-width="0.844939" stroke-miterlimit="10" stroke-linecap="round"/>
<path d="M539.791 49.3801C546.176 52.9073 571.951 69.3649 573.099 98.2317C573.099 102.673 571.951 113.109 562.762 114.886L553.574 118.216" stroke="white" stroke-linecap="round"/>
<rect x="638.438" y="691.471" width="451.04" height="659" rx="225.52" transform="rotate(-180 638.438 691.471)" fill="#7F56D9" fill-opacity="0.5"/>
</svg>
